<?xml version="1.0" standalone="no"?>
<!DOCTYPE svg PUBLIC "-//W3C//DTD SVG 20010904//EN"
 "http://www.w3.org/TR/2001/REC-SVG-20010904/DTD/svg10.dtd">
<svg version="1.0" xmlns="http://www.w3.org/2000/svg"
 width="700.000000pt" height="700.000000pt" viewBox="0 0 700.000000 700.000000"
 preserveAspectRatio="xMidYMid meet">
<metadata>
Created by potrace 1.14, written by Peter Selinger 2001-2017
</metadata>
<g transform="translate(0.000000,700.000000) scale(0.100000,-0.100000)"
fill="#000000" stroke="none">
<path d="M3369 6996 c-2 -2 -30 -6 -61 -10 -150 -15 -348 -75 -505 -152 -130
-64 -387 -243 -372 -259 2 -2 482 -484 1066 -1072 583 -587 1075 -1084 1092
-1103 94 -106 206 -304 255 -452 56 -168 70 -254 71 -430 0 -71 3 -128 6 -128
4 0 1074 1074 1369 1374 l54 56 -724 726 c-1152 1153 -1091 1095 -1230 1187
-192 127 -399 206 -660 252 -39 7 -355 16 -361 11z"/>
<path d="M1288 5446 c-488 -490 -911 -920 -939 -956 -112 -140 -220 -339 -273
-505 -54 -170 -75 -325 -70 -525 3 -161 5 -188 18 -247 12 -54 17 -78 22 -103
22 -115 125 -350 210 -480 68 -105 151 -210 165 -210 4 0 491 483 1081 1073
590 590 1100 1094 1133 1118 265 200 544 293 877 293 54 0 96 1 95 3 -13 14
-1391 1393 -1409 1409 l-23 20 -887 -890z"/>
<path d="M5982 3988 c-325 -326 -804 -807 -1064 -1069 -260 -261 -495 -493
-523 -515 -258 -208 -563 -316 -894 -316 l-113 0 161 -162 c88 -88 411 -413
716 -720 l556 -559 880 884 c484 486 904 913 933 949 191 234 323 539 354 819
12 111 6 389 -11 476 -42 219 -125 434 -231 595 -46 69 -156 210 -165 210 -5
0 -274 -267 -599 -592z"/>
<path d="M1377 2902 l-716 -719 887 -889 c520 -521 922 -916 972 -955 98 -76
211 -146 308 -190 81 -38 244 -95 293 -103 20 -3 42 -8 50 -10 101 -36 450
-42 614 -11 278 54 539 177 738 348 l59 50 -1070 1071 c-588 589 -1086 1094
-1108 1121 -152 191 -234 370 -290 630 -12 56 -18 142 -19 252 0 68 0 123 0
123 -1 0 -323 -323 -718 -718z"/>
</g>
</svg>
