<?xml version="1.0" encoding="UTF-8"?><svg id="Capa_2" xmlns="http://www.w3.org/2000/svg" viewBox="0 0 88.25 88.25"><defs><style>.cls-1{fill:#fff;}.cls-2{fill:#c6f000;}.cls-3{fill:#6336c2;}</style></defs><g id="Capa_2-2"><g><circle class="cls-1" cx="44.12" cy="44.12" r="42.62"/><g><path class="cls-3" d="m69.8,42.86l-24.75-19.21c-.54-.42-1.3-.42-1.84,0l-24.75,19.21c-.65.51-.77,1.45-.26,2.1.51.66,1.45.77,2.1.27l5.8-4.5v20.47c0,2.04,1.66,3.71,3.71,3.71h28.65c2.04,0,3.71-1.66,3.71-3.71v-20.48l5.8,4.5c.27.21.6.31.92.31.45,0,.89-.2,1.19-.58.51-.65.39-1.6-.26-2.1Zm-35.19,19.05v-11.95h5.27v11.95h-5.27Zm24.55-.71c0,.39-.32.71-.71.71h-15.58v-13.45c0-.83-.67-1.5-1.5-1.5h-8.27c-.83,0-1.5.67-1.5,1.5v13.45h-1.81c-.39,0-.71-.32-.71-.71v-22.8l15.04-11.67,15.03,11.67v22.8Z"/><path class="cls-2" d="m55.15,52.51h-8.27c-.83,0-1.5-.67-1.5-1.5v-8.27c0-.83.67-1.5,1.5-1.5h8.27c.83,0,1.5.67,1.5,1.5v8.27c0,.83-.67,1.5-1.5,1.5Zm-6.77-3h5.27v-5.27h-5.27v5.27Z"/></g><path class="cls-3" d="m44.12,88.25C19.79,88.25,0,68.45,0,44.12S19.79,0,44.12,0s44.12,19.79,44.12,44.12-19.79,44.12-44.12,44.12Zm0-85.25C21.45,3,3,21.45,3,44.12s18.45,41.12,41.12,41.12,41.12-18.45,41.12-41.12S66.8,3,44.12,3Z"/></g></g></svg>