<?xml version="1.0" encoding="UTF-8"?><svg id="Capa_2" xmlns="http://www.w3.org/2000/svg" viewBox="0 0 88.25 88.25"><defs><style>.cls-1{fill:#fff;}.cls-2{fill:#c6f000;}.cls-3{fill:#6336c2;}</style></defs><g id="Capa_2-2"><g><circle class="cls-1" cx="44.12" cy="44.12" r="42.62"/><g><path class="cls-2" d="m54.95,32.27c-.79-.49-1.64-.75-2.48-1-.28-.08-.57-.17-.85-.27-.88-.3-1.24-.6-1.24-1.02,0-.24,0-.88,1.65-.88.72,0,1.2.19,1.63.36.36.15.7.28,1.12.28.74,0,1.32-.58,1.32-1.31,0-1.13-1.4-1.6-2.61-1.79v-.72c0-.82-.67-1.49-1.49-1.49s-1.49.67-1.49,1.49v.78c-1.9.43-2.99,1.64-2.99,3.33,0,1.3.6,2.3,1.79,2.96.69.38,1.41.6,2.11.81l.03-.1v.1c.36.11.71.22,1.02.34.8.32,1.14.65,1.14,1.11,0,.78-.62,1.21-1.74,1.21-.92,0-1.46-.3-1.95-.56-.36-.2-.71-.38-1.12-.38-.74,0-1.34.6-1.34,1.34,0,1.38,2.22,1.88,3.04,2.02v.82c0,.82.67,1.49,1.49,1.49s1.49-.67,1.49-1.49v-.91c1.9-.5,3.04-1.87,3.04-3.68,0-1.23-.55-2.22-1.59-2.86Z"/><path class="cls-3" d="m67.17,45.82c-1.67-2.05-4.56-2.38-7.02-.82-.99.63-6.34,3.92-8.05,4.96-.28-.19-.57-.36-.89-.49-1.42-.78-16-8.78-17.76-9.7-2.2-1.15-6.76-2.72-12.57-.41-.77.31-1.14,1.18-.84,1.95.31.77,1.18,1.14,1.95.84,4.46-1.78,7.94-.83,10.07.28,1.79.93,17.64,9.63,17.8,9.72.07.04.13.07.21.09.8.29,1.21,1.18.92,1.98-.29.79-1.17,1.19-2.02.9-1.13-.38-11.63-3.36-12.07-3.49-.8-.23-1.63.24-1.85,1.03s.24,1.63,1.03,1.85c3.02.86,11.06,3.15,11.94,3.45.5.17,1.01.25,1.52.25,1.87,0,3.6-1.13,4.27-2.96.35-.96.34-1.95.07-2.86,1.9-1.17,6.91-4.24,7.9-4.87.96-.61,2.29-.79,3.09.19.73.89.6,2.21-.32,2.96-4.61,3.94-12.22,10.39-13.03,10.95-2.27,1.56-3.9,1.76-7.59.93-4.05-.91-21.94-5.31-22.12-5.35-.82-.2-1.62.29-1.82,1.1-.2.8.29,1.62,1.1,1.81.18.04,18.1,4.45,22.18,5.37,1.62.36,2.97.55,4.17.55,2.16,0,3.84-.61,5.77-1.94,1.21-.83,12.05-10.09,13.26-11.12,2.17-1.78,2.49-4.99.72-7.17Z"/></g><path class="cls-3" d="m44.12,88.25C19.79,88.25,0,68.45,0,44.12S19.79,0,44.12,0s44.12,19.79,44.12,44.12-19.79,44.12-44.12,44.12Zm0-85.25C21.45,3,3,21.45,3,44.12s18.45,41.12,41.12,41.12,41.12-18.45,41.12-41.12S66.8,3,44.12,3Z"/></g></g></svg>