<?xml version="1.0" encoding="UTF-8"?><svg id="Capa_2" xmlns="http://www.w3.org/2000/svg" viewBox="0 0 88.25 88.25"><defs><style>.cls-1{fill:#fff;}.cls-2{fill:#c6f000;}.cls-3{fill:#6336c2;}</style></defs><g id="Capa_2-2"><g><circle class="cls-1" cx="44.12" cy="44.12" r="42.62"/><g><path class="cls-3" d="m69.01,61.91h-3.79V27.04c0-2.04-1.66-3.7-3.7-3.7H27.27c-2.04,0-3.71,1.66-3.71,3.7v34.87h-3.79c-.83,0-1.5.67-1.5,1.5s.67,1.5,1.5,1.5h49.24c.83,0,1.5-.67,1.5-1.5s-.67-1.5-1.5-1.5ZM26.57,27.04c0-.39.32-.7.71-.7h34.24c.39,0,.7.32.7.7v34.87h-20.42v-13.54c0-.83-.67-1.5-1.5-1.5h-8.27c-.83,0-1.5.67-1.5,1.5v13.54h-3.97V27.04Zm6.97,34.87v-12.04h5.27v12.04h-5.27Z"/><g><path class="cls-2" d="m40.3,30.15h-8.27c-.83,0-1.5.67-1.5,1.5v8.27c0,.83.67,1.5,1.5,1.5h8.27c.83,0,1.5-.67,1.5-1.5v-8.27c0-.83-.67-1.5-1.5-1.5Zm-1.5,8.27h-5.27v-5.27h5.27v5.27Z"/><path class="cls-2" d="m56.83,30.15h-8.27c-.83,0-1.5.67-1.5,1.5v8.27c0,.83.67,1.5,1.5,1.5h8.27c.83,0,1.5-.67,1.5-1.5v-8.27c0-.83-.67-1.5-1.5-1.5Zm-1.5,8.27h-5.27v-5.27h5.27v5.27Z"/><path class="cls-2" d="m56.83,46.88h-8.27c-.83,0-1.5.67-1.5,1.5v8.27c0,.83.67,1.5,1.5,1.5h8.27c.83,0,1.5-.67,1.5-1.5v-8.27c0-.83-.67-1.5-1.5-1.5Zm-1.5,8.27h-5.27v-5.27h5.27v5.27Z"/></g></g><path class="cls-3" d="m44.12,88.25C19.79,88.25,0,68.45,0,44.12S19.79,0,44.12,0s44.12,19.79,44.12,44.12-19.79,44.12-44.12,44.12Zm0-85.25C21.45,3,3,21.45,3,44.12s18.45,41.12,41.12,41.12,41.12-18.45,41.12-41.12S66.8,3,44.12,3Z"/></g></g></svg>