<?xml version="1.0" encoding="UTF-8"?><svg id="Capa_2" xmlns="http://www.w3.org/2000/svg" viewBox="0 0 88.25 88.25"><defs><style>.cls-1{fill:#fff;}.cls-2{fill:#c6f000;}.cls-3{fill:#6336c2;}</style></defs><g id="Capa_2-2"><g><circle class="cls-1" cx="44.12" cy="44.12" r="42.62"/><g><path class="cls-3" d="m63.2,54.55c-.26-.79-1.11-1.21-1.9-.95l-16.32,5.44c-.98-1.42-2.62-2.36-4.47-2.36-.08,0-.15,0-.23.01l-9.42-28.28s0,0,0,0c-.95-2.84-4.03-4.38-6.87-3.43-.79.26-1.21,1.11-.95,1.9.26.79,1.11,1.21,1.9.95,1.27-.42,2.65.27,3.07,1.54,0,0,0,0,0,0l9.42,28.27c-1.42.98-2.36,2.62-2.36,4.47,0,2.99,2.44,5.43,5.43,5.43s5.43-2.44,5.43-5.43c0-.08,0-.15-.01-.23l16.32-5.44c.79-.26,1.21-1.11.95-1.9Zm-22.69,9.99c-1.34,0-2.43-1.09-2.43-2.43s1.09-2.43,2.43-2.43,2.43,1.09,2.43,2.43-1.09,2.43-2.43,2.43Z"/><path class="cls-2" d="m44.95,55.16c-.62,0-1.21-.39-1.42-1.02l-4.68-13.71c-.13-.38-.1-.79.07-1.15.18-.36.49-.63.86-.76l13.71-4.68c.78-.27,1.64.15,1.9.94l4.68,13.71c.27.78-.15,1.64-.94,1.9l-13.71,4.68c-.16.06-.32.08-.48.08Zm-2.78-14.28l3.71,10.87,10.87-3.71-3.71-10.87-10.87,3.71Z"/></g><path class="cls-3" d="m44.12,88.25C19.79,88.25,0,68.45,0,44.12S19.79,0,44.12,0s44.12,19.79,44.12,44.12-19.79,44.12-44.12,44.12Zm0-85.25C21.45,3,3,21.45,3,44.12s18.45,41.12,41.12,41.12,41.12-18.45,41.12-41.12S66.8,3,44.12,3Z"/></g></g></svg>