<?xml version="1.0" encoding="UTF-8"?><svg id="Capa_2" xmlns="http://www.w3.org/2000/svg" viewBox="0 0 88.25 88.25"><defs><style>.cls-1{fill:#fff;}.cls-2{fill:#c6f000;}.cls-3{fill:#6336c2;}</style></defs><g id="Capa_2-2"><g><circle class="cls-1" cx="44.12" cy="44.12" r="42.62"/><g><path class="cls-3" d="m66.17,27.09h-16.87c-2.08,0-3.95.88-5.17,2.26-1.22-1.38-3.09-2.26-5.17-2.26h-16.87c-.83,0-1.5.67-1.5,1.5v33.05c0,.83.67,1.5,1.5,1.5h21.9s.09.01.14.01.09,0,.14-.01h21.9c.83,0,1.5-.67,1.5-1.5V28.59c0-.83-.67-1.5-1.5-1.5Zm-16.87,3h15.37v30.05h-19.04v-26.93c0-1.72,1.65-3.12,3.67-3.12Zm-10.34,0c2.02,0,3.67,1.4,3.67,3.12v26.93h-19.04v-30.05h15.37Z"/><g><path class="cls-2" d="m37.91,34.18h-10.67c-.83,0-1.5.67-1.5,1.5s.67,1.5,1.5,1.5h10.67c.83,0,1.5-.67,1.5-1.5s-.67-1.5-1.5-1.5Z"/><path class="cls-2" d="m37.91,46.81h-10.67c-.83,0-1.5.67-1.5,1.5s.67,1.5,1.5,1.5h10.67c.83,0,1.5-.67,1.5-1.5s-.67-1.5-1.5-1.5Z"/><path class="cls-2" d="m37.91,40.5h-10.67c-.83,0-1.5.67-1.5,1.5s.67,1.5,1.5,1.5h10.67c.83,0,1.5-.67,1.5-1.5s-.67-1.5-1.5-1.5Z"/><path class="cls-2" d="m37.91,53.13h-10.67c-.83,0-1.5.67-1.5,1.5s.67,1.5,1.5,1.5h10.67c.83,0,1.5-.67,1.5-1.5s-.67-1.5-1.5-1.5Z"/><path class="cls-2" d="m50.36,37.18h10.67c.83,0,1.5-.67,1.5-1.5s-.67-1.5-1.5-1.5h-10.67c-.83,0-1.5.67-1.5,1.5s.67,1.5,1.5,1.5Z"/><path class="cls-2" d="m61.03,46.81h-10.67c-.83,0-1.5.67-1.5,1.5s.67,1.5,1.5,1.5h10.67c.83,0,1.5-.67,1.5-1.5s-.67-1.5-1.5-1.5Z"/><path class="cls-2" d="m61.03,40.5h-10.67c-.83,0-1.5.67-1.5,1.5s.67,1.5,1.5,1.5h10.67c.83,0,1.5-.67,1.5-1.5s-.67-1.5-1.5-1.5Z"/><path class="cls-2" d="m61.03,53.13h-10.67c-.83,0-1.5.67-1.5,1.5s.67,1.5,1.5,1.5h10.67c.83,0,1.5-.67,1.5-1.5s-.67-1.5-1.5-1.5Z"/></g></g><path class="cls-3" d="m44.12,88.25C19.79,88.25,0,68.45,0,44.12S19.79,0,44.12,0s44.12,19.79,44.12,44.12-19.79,44.12-44.12,44.12Zm0-85.25C21.45,3,3,21.45,3,44.12s18.45,41.12,41.12,41.12,41.12-18.45,41.12-41.12S66.8,3,44.12,3Z"/></g></g></svg>