<?xml version="1.0" encoding="UTF-8"?><svg id="Capa_2" xmlns="http://www.w3.org/2000/svg" viewBox="0 0 88.25 88.25"><defs><style>.cls-1{fill:#fff;}.cls-2{fill:#c6f000;}.cls-3{fill:#6336c2;}</style></defs><g id="Capa_2-2"><g><circle class="cls-1" cx="44.12" cy="44.12" r="42.62"/><g><path class="cls-3" d="m42.23,65.22h-8.82c-.83,0-1.5-.67-1.5-1.5s.67-1.5,1.5-1.5h8.82c.39,0,.71-.32.71-.71v-2.63c0-.39-.32-.71-.71-.71h-16.31c-2.04,0-3.71-1.66-3.71-3.71v-25.74c0-2.04,1.66-3.71,3.71-3.71h36.94c2.04,0,3.71,1.66,3.71,3.71v7.44c0,.83-.67,1.5-1.5,1.5s-1.5-.67-1.5-1.5v-7.44c0-.39-.32-.71-.71-.71H25.92c-.39,0-.71.32-.71.71v25.74c0,.39.32.71.71.71h16.31c2.04,0,3.71,1.66,3.71,3.71v2.63c0,2.04-1.66,3.71-3.71,3.71Z"/><g><path class="cls-2" d="m45.75,41.83c0-.83-.67-1.5-1.5-1.5-3.89,0-7.06,3.17-7.06,7.06,0,.83.67,1.5,1.5,1.5s1.5-.67,1.5-1.5c0-2.24,1.82-4.06,4.06-4.06.83,0,1.5-.67,1.5-1.5Z"/><path class="cls-2" d="m44.25,37.82c.83,0,1.5-.67,1.5-1.5s-.67-1.5-1.5-1.5c-6.93,0-12.57,5.64-12.57,12.57,0,.83.67,1.5,1.5,1.5s1.5-.67,1.5-1.5c0-5.28,4.29-9.57,9.57-9.57Z"/><path class="cls-2" d="m44.25,45.39c-1.1,0-1.99.9-1.99,1.99s.89,1.99,1.99,1.99,1.99-.89,1.99-1.99-.9-1.99-1.99-1.99Z"/><path class="cls-2" d="m65.07,41.99h-13.47c-.83,0-1.5.67-1.5,1.5v18.98c0,.83.67,1.5,1.5,1.5h13.47c.83,0,1.5-.67,1.5-1.5v-18.98c0-.83-.67-1.5-1.5-1.5Zm-1.5,18.98h-10.47v-15.98h10.47v15.98Z"/><path class="cls-2" d="m58.34,59.4c1.1,0,1.99-.9,1.99-1.99s-.89-1.99-1.99-1.99-1.99.89-1.99,1.99.89,1.99,1.99,1.99Z"/></g></g><path class="cls-3" d="m44.12,88.25C19.79,88.25,0,68.45,0,44.12S19.79,0,44.12,0s44.12,19.79,44.12,44.12-19.79,44.12-44.12,44.12Zm0-85.25C21.45,3,3,21.45,3,44.12s18.45,41.12,41.12,41.12,41.12-18.45,41.12-41.12S66.8,3,44.12,3Z"/></g></g></svg>