<?xml version="1.0" encoding="UTF-8"?><svg id="Capa_2" xmlns="http://www.w3.org/2000/svg" viewBox="0 0 88.25 88.25"><defs><style>.cls-1{fill:#fff;}.cls-2{fill:#c6f000;}.cls-3{fill:#6336c2;}</style></defs><g id="Capa_2-2"><g><circle class="cls-1" cx="44.12" cy="44.12" r="42.62"/><g><path class="cls-2" d="m61.42,27.6c-.38,0-.77-.15-1.06-.44-.59-.59-.59-1.54,0-2.12l5.51-5.51c.59-.59,1.54-.59,2.12,0,.59.59.59,1.54,0,2.12l-5.51,5.51c-.29.29-.68.44-1.06.44Z"/><path class="cls-2" d="m71.97,35.87h-7.79c-.83,0-1.5-.67-1.5-1.5s.67-1.5,1.5-1.5h7.79c.83,0,1.5.67,1.5,1.5s-.67,1.5-1.5,1.5Z"/><path class="cls-2" d="m53.16,24.85c-.83,0-1.5-.67-1.5-1.5v-7.79c0-.83.67-1.5,1.5-1.5s1.5.67,1.5,1.5v7.79c0,.83-.67,1.5-1.5,1.5Z"/><g><path class="cls-3" d="m43.72,36.91c-3.83,0-6.94,3.11-6.94,6.94s3.11,6.94,6.94,6.94,6.94-3.11,6.94-6.94-3.11-6.94-6.94-6.94Zm0,10.88c-2.17,0-3.94-1.77-3.94-3.94s1.77-3.94,3.94-3.94,3.94,1.77,3.94,3.94-1.77,3.94-3.94,3.94Z"/><path class="cls-3" d="m61.75,43.85c0-9.94-8.09-18.03-18.03-18.03s-18.03,8.09-18.03,18.03c0,7.16,4.21,13.34,10.27,16.25v4.38c0,2.04,1.66,3.7,3.7,3.7h8.12c2.04,0,3.7-1.66,3.7-3.7v-4.38c6.06-2.91,10.27-9.09,10.27-16.25Zm-13.27,20.63c0,.39-.32.7-.7.7h-8.12c-.39,0-.7-.32-.7-.7v-3.25c1.52.42,3.11.66,4.77.66s3.24-.24,4.76-.66v3.25Zm-4.76-5.6c-8.29,0-15.03-6.74-15.03-15.03s6.74-15.03,15.03-15.03,15.03,6.74,15.03,15.03-6.74,15.03-15.03,15.03Z"/></g></g><path class="cls-3" d="m44.12,88.25C19.79,88.25,0,68.45,0,44.12S19.79,0,44.12,0s44.12,19.79,44.12,44.12-19.79,44.12-44.12,44.12Zm0-85.25C21.45,3,3,21.45,3,44.12s18.45,41.12,41.12,41.12,41.12-18.45,41.12-41.12S66.8,3,44.12,3Z"/></g></g></svg>