<?xml version="1.0" encoding="UTF-8"?><svg id="Capa_2" xmlns="http://www.w3.org/2000/svg" viewBox="0 0 88.25 88.25"><defs><style>.cls-1{fill:#fff;}.cls-2{fill:#c6f000;}.cls-3{fill:#6336c2;}</style></defs><g id="Capa_2-2"><g><circle class="cls-1" cx="44.12" cy="44.12" r="42.62"/><path class="cls-3" d="m44.12,88.25C19.79,88.25,0,68.45,0,44.12S19.79,0,44.12,0s44.12,19.79,44.12,44.12-19.79,44.12-44.12,44.12Zm0-85.25C21.45,3,3,21.45,3,44.12s18.45,41.12,41.12,41.12,41.12-18.45,41.12-41.12S66.8,3,44.12,3Z"/></g><g><path class="cls-3" d="m44.19,68.61h-.13c-.09,0-.17,0-.26-.02-.2-.03-19.55-3.68-19.55-28.85v-10.65c0-.65.42-1.23,1.05-1.43l18.3-5.78c.17-.05.35-.07.52-.07.17,0,.34.01.52.07l18.3,5.78c.62.2,1.05.78,1.05,1.43v10.65c0,13.08-5.27,20.23-9.69,23.92-4.83,4.03-9.65,4.9-9.86,4.94-.08.01-.17.02-.26.02ZM27.26,30.19v9.55c0,21.53,14.88,25.44,16.87,25.86,1.97-.42,16.87-4.32,16.87-25.86v-9.55l-16.87-5.33-16.87,5.33Z"/><path class="cls-2" d="m55.13,42.84h-7.39l5.22-5.22c.59-.59.59-1.54,0-2.12s-1.54-.59-2.12,0l-5.22,5.22v-7.38c0-.83-.67-1.5-1.5-1.5s-1.5.67-1.5,1.5v7.38l-5.22-5.22c-.59-.59-1.54-.59-2.12,0s-.59,1.54,0,2.12l5.22,5.22h-7.38c-.83,0-1.5.67-1.5,1.5s.67,1.5,1.5,1.5h7.38l-5.22,5.22c-.59.59-.59,1.54,0,2.12.29.29.68.44,1.06.44s.77-.15,1.06-.44l5.22-5.22v7.38c0,.83.67,1.5,1.5,1.5s1.5-.67,1.5-1.5v-7.38l5.22,5.22c.29.29.68.44,1.06.44s.77-.15,1.06-.44c.59-.59.59-1.54,0-2.12l-5.22-5.22h7.38c.83,0,1.5-.67,1.5-1.5s-.67-1.5-1.5-1.5Z"/></g></g></svg>