<svg xmlns="http://www.w3.org/2000/svg" viewBox="0 0 160.87 31.27"><defs><style>.cls-1{fill:#323e48;}.cls-2{fill:#fff;}.cls-3{fill:#aa0032;}.cls-4{fill:#c1801d;}.cls-5{fill:#ff6b00;}.cls-6{fill:#025780;}</style></defs><g id="Capa_2" data-name="Capa 2"><g id="Capa_2-2" data-name="Capa 2"><g id="Capa_1-2" data-name="Capa 1-2"><path class="cls-1" d="M59.74,18.6l-1.13,6.15a14.35,14.35,0,0,1-5.41,1.12c-3.32,0-4.7-1.4-4.29-3.66s2.68-3.59,5.4-3.56a7.61,7.61,0,0,1,2.71.46l.11-.65c.25-1.34-.5-2.15-2.3-2.15a6.31,6.31,0,0,0-3.32,1,1.83,1.83,0,0,1-.92-1.73A8.31,8.31,0,0,1,55.44,14c3,0,4.91,1.34,4.3,4.65M54,23.81a8.43,8.43,0,0,0,2.39-.35l.44-2.41a6.35,6.35,0,0,0-2.47-.44c-1.32,0-2.31.44-2.5,1.5s.49,1.7,2.14,1.7"/><path class="cls-1" d="M135.91,18.6l-1.15,6.15a14.34,14.34,0,0,1-5.4,1.12c-3.33,0-4.71-1.4-4.3-3.66s2.69-3.59,5.4-3.56a7.81,7.81,0,0,1,2.71.43l.11-.65c.25-1.34-.5-2.15-2.3-2.15a6.31,6.31,0,0,0-3.32,1,1.82,1.82,0,0,1-.92-1.73,8.31,8.31,0,0,1,4.85-1.6c3,0,4.91,1.34,4.29,4.65m-5.69,5.17a8.31,8.31,0,0,0,2.38-.35L133,21a6.37,6.37,0,0,0-2.48-.44c-1.31,0-2.29.44-2.49,1.5s.49,1.7,2.14,1.7"/><path id="_Trazado_" data-name=" Trazado " class="cls-1" d="M72.74,19.93a7.17,7.17,0,0,1,7-6,5,5,0,0,1,3.56,1.28,4.24,4.24,0,0,1-1.78,1.92,2.88,2.88,0,0,0-2.11-.85,4,4,0,0,0-3.93,3.66c-.36,1.92.36,3.63,2.61,3.63a4.22,4.22,0,0,0,2.66-.95,2.23,2.23,0,0,1,1.09,1.83,6.94,6.94,0,0,1-4.2,1.45c-3.59,0-5.58-2.19-4.89-5.94"/><path class="cls-1" d="M82.59,19.91a7.25,7.25,0,0,1,7.1-6c3.47,0,5.46,2.46,4.81,6a7.25,7.25,0,0,1-7.1,6c-3.47,0-5.46-2.45-4.81-6m9.21,0c.4-2.16-.57-3.66-2.58-3.66a4,4,0,0,0-3.92,3.66c-.4,2.13.56,3.6,2.58,3.6a4,4,0,0,0,3.92-3.6"/><path id="_Trazado_2" data-name=" Trazado 2" class="cls-1" d="M105.83,24.47a3.91,3.91,0,0,1,1.58-1.85,4.68,4.68,0,0,0,3.26,1.11c1.59,0,2.27-.59,2.42-1.35s-.43-1.19-2.39-1.5-3.7-1-3.27-3.41c.4-2.09,2.53-3.52,5.37-3.52a6.54,6.54,0,0,1,4,1.09A3.77,3.77,0,0,1,115.46,17a5.84,5.84,0,0,0-3.15-.86c-1.42,0-2.12.45-2.25,1.17s.29,1.08,2.16,1.39c2.37.39,4,1.21,3.59,3.44s-2.49,3.78-5.58,3.78a6.11,6.11,0,0,1-4.4-1.42"/><path class="cls-1" d="M148.84,19.91a7.25,7.25,0,0,1,7.11-6c3.47,0,5.45,2.46,4.8,6a7.25,7.25,0,0,1-7.1,6c-3.47,0-5.46-2.45-4.81-6m9.21,0c.39-2.16-.57-3.66-2.58-3.66a4.09,4.09,0,0,0-3.93,3.66c-.39,2.13.57,3.6,2.6,3.6a4,4,0,0,0,3.91-3.6"/><path class="cls-1" d="M146.64,11,146,14.33a5.76,5.76,0,0,0-2.21-.35,7.28,7.28,0,0,0-7.23,6c-.71,3.79,1.43,5.89,5.13,5.89a12.82,12.82,0,0,0,5.1-1.15l2.68-14.54ZM144.4,23.13a6.14,6.14,0,0,1-2.29.35c-2,0-3.19-1.37-2.79-3.58a4.23,4.23,0,0,1,4.16-3.58,3.64,3.64,0,0,1,2.09.49Z"/><path id="_Trazado_3" data-name=" Trazado 3" class="cls-1" d="M125.71,14.43H121.5l.55-2.93-2.8.78L117.45,22c-.5,2.71,1.08,3.81,3.5,3.81a6,6,0,0,0,3.59-1.22,2.28,2.28,0,0,0-.79-1.87,3.53,3.53,0,0,1-2,.75c-1.11,0-1.82-.42-1.51-2.08l.88-4.82h4.2a4.73,4.73,0,0,0,.33-1.11,4.26,4.26,0,0,0,.08-1.07"/><path class="cls-1" d="M136.57,26.89l-.7,3.35a2.82,2.82,0,0,1-1.14.25c-.84,0-1.31-.47-1.13-1.33a1.68,1.68,0,0,1,1.66-1.34,1.15,1.15,0,0,1,.49.08l.21-1a2.08,2.08,0,0,1,.61,0m-1.23,3,.3-1.43a.86.86,0,0,0-.47-.11,1,1,0,0,0-1,.8c-.1.51.15.82.62.82a1.81,1.81,0,0,0,.51-.08"/><path class="cls-1" d="M139,29.31h-1.79a.56.56,0,0,0,.42.67h.17a1.56,1.56,0,0,0,.81-.26.51.51,0,0,1,.16.44,2,2,0,0,1-1.13.35,1,1,0,0,1-1-1,.81.81,0,0,1,0-.38,1.61,1.61,0,0,1,1.55-1.35.88.88,0,0,1,1,.73v0a.77.77,0,0,1,0,.37,1.21,1.21,0,0,1-.1.36m-.48-.4c.06-.3,0-.6-.44-.61a.83.83,0,0,0-.78.61Z"/><path id="_Trazado_4" data-name=" Trazado 4" class="cls-1" d="M139.22,30.17a1,1,0,0,1,.37-.42,1.06,1.06,0,0,0,.73.25c.36,0,.51-.13.55-.3s-.09-.27-.53-.35-.83-.23-.72-.76a1.16,1.16,0,0,1,1.23-.79,1.47,1.47,0,0,1,.91.24.85.85,0,0,1-.33.44,1.32,1.32,0,0,0-.7-.2c-.32,0-.48.11-.51.27s.06.24.48.31.9.27.78.78a1.15,1.15,0,0,1-1.27.85,1.37,1.37,0,0,1-1-.32"/><path class="cls-1" d="M144.94,26.89l-.69,3.35a2.88,2.88,0,0,1-1.16.25A1,1,0,0,1,142,29.16a1.67,1.67,0,0,1,1.66-1.34,1.18,1.18,0,0,1,.49.08l.21-1h.6m-1.22,3,.29-1.43a.75.75,0,0,0-.46-.11,1,1,0,0,0-1,.8c-.1.51.15.82.6.82a1.89,1.89,0,0,0,.53-.08"/><path class="cls-1" d="M147.39,29.31H145.6A.55.55,0,0,0,146,30h.19a1.56,1.56,0,0,0,.81-.26.48.48,0,0,1,.18.41,2,2,0,0,1-1.13.35,1,1,0,0,1-1.06-.95h0a1.2,1.2,0,0,1,.05-.38,1.65,1.65,0,0,1,1.56-1.35.87.87,0,0,1,1,.73v0a1.15,1.15,0,0,1,0,.37,1.36,1.36,0,0,1-.1.36m-.49-.4c.07-.3,0-.6-.44-.61a.82.82,0,0,0-.77.61Z"/><path id="_Trazado_5" data-name=" Trazado 5" class="cls-1" d="M150.85,26.93l-.73,3.48a1.5,1.5,0,0,1-.3,0,1.41,1.41,0,0,1-.29,0l.57-2.73-.67.28a.7.7,0,0,1-.12-.53l1.11-.5h.43"/><path class="cls-1" d="M153.43,29.45a1.36,1.36,0,0,1-1.46,1c-.62,0-1.16-.23-1-.92a1.62,1.62,0,0,1,.76-1,.71.71,0,0,1-.29-.77,1.27,1.27,0,0,1,1.32-1c.68,0,1,.36.93.92a1.42,1.42,0,0,1-.64.82.73.73,0,0,1,.39.84m-.59.08c.07-.32-.22-.46-.57-.62l-.17-.08a1.22,1.22,0,0,0-.54.7c-.07.37.19.49.53.49s.68-.12.75-.49M152,27.65c-.06.29.19.42.49.56l.13.06a.91.91,0,0,0,.48-.57c.06-.32-.15-.47-.46-.47a.61.61,0,0,0-.64.42"/><path id="_Trazado_6" data-name=" Trazado 6" class="cls-1" d="M153.79,30.17a1,1,0,0,1,.41-.47.91.91,0,0,0,.66.28.76.76,0,0,0,.83-.66c.09-.38-.1-.61-.57-.61-.31,0-.56.13-.79.13a.38.38,0,0,1-.15,0l.38-1.84h2a1.4,1.4,0,0,1,0,.29,1.73,1.73,0,0,1-.08.27H155l-.14.72a1.42,1.42,0,0,1,.45-.08c.84,0,1.16.42,1,1.12a1.49,1.49,0,0,1-1.58,1.22,1.25,1.25,0,0,1-.94-.34"/><path id="_Trazado_7" data-name=" Trazado 7" class="cls-1" d="M156.61,30.17a1,1,0,0,1,.4-.47,1,1,0,0,0,.67.28.77.77,0,0,0,.83-.66c.08-.38-.1-.61-.57-.61-.31,0-.57.13-.8.13a.2.2,0,0,1-.15,0l.37-1.84h2a1.32,1.32,0,0,1-.13.56h-1.47l-.15.72a1.39,1.39,0,0,1,.46-.08c.83,0,1.15.42,1,1.12a1.48,1.48,0,0,1-1.57,1.22,1.25,1.25,0,0,1-.94-.34"/><path id="_Trazado_8" data-name=" Trazado 8" class="cls-1" d="M107.6,10.28H96.83L97.38,12a1.22,1.22,0,0,1,0,.27v.14L95,25.48h10a5.49,5.49,0,0,0,.39-1.25,3.83,3.83,0,0,0,0-1.17h-7.2l.77-4.17h6.29a7.28,7.28,0,0,0,.41-1.19,4.9,4.9,0,0,0,.08-1.21H99.34l.69-3.77h7a5.19,5.19,0,0,0,.36-1.22,5,5,0,0,0,.09-1.22"/><path id="_Trazado_9" data-name=" Trazado 9" class="cls-1" d="M67.53,13.93a10,10,0,0,0-3,.47.41.41,0,0,1-.22,0,.49.49,0,0,1-.24,0h0l-1.89-.56-.34,1.87h0L60,25.51a5.71,5.71,0,0,0,1.3.11,6.33,6.33,0,0,0,1.38-.11L64.25,17a6,6,0,0,1,2.62-.63c1.73,0,2.58.79,2.2,2.86l-1.16,6.26a5.93,5.93,0,0,0,1.33.11,6.43,6.43,0,0,0,1.38-.11l1.27-6.91c.48-2.58-.73-4.67-4.36-4.67"/><path class="cls-1" d="M48.77,14.31c.5-2.68-1-4.2-5-4.2H38l.63,1.83a.71.71,0,0,1,0,.29.61.61,0,0,1,0,.19L36.23,25.49a23.73,23.73,0,0,0,4.68.39c4.3,0,6.7-1.78,7.23-4.68a2.87,2.87,0,0,0-1.88-3.61h0a4.16,4.16,0,0,0,2.52-3.27m-3.28,6.8c-.32,1.71-1.5,2.47-4,2.47a19,19,0,0,1-2.13-.12l.86-4.62h2.55c2,0,3,.75,2.74,2.27m.65-6.76C45.88,15.78,45,16.59,43,16.59H40.62l.77-4.2c.75-.07,1.46-.1,2.15-.1,2,0,2.85.76,2.61,2.07"/><rect class="cls-2" width="31.27" height="31.27"/><path id="_Trazado_10" data-name=" Trazado 10" class="cls-3" d="M.74,15.72l10.61-4.66V7.69h0A14,14,0,0,0,19.9,2.92h0l10.62,8.67V.74H.74Z"/><path id="_Trazado_11" data-name=" Trazado 11" class="cls-2" d="M11.37,25.55H19.9V2.93h0a14,14,0,0,1-8.54,4.76h0v3.37L.74,15.72v3.33l10.62-4.66V11.06l3.41-1.49v3.3l-3.4,1.51v3.26l3.41-1.49V19.4l-3.41,1.5V17.64L.74,22.3v3.25L11.37,20.9Z"/><polygon id="_Trazado_12" data-name=" Trazado 12" class="cls-4" points="11.37 17.64 11.37 17.64 11.37 14.38 11.36 14.39 11.36 14.39 0.74 19.05 0.74 22.3 11.37 17.64 11.37 17.64"/><polygon id="_Trazado_13" data-name=" Trazado 13" class="cls-4" points="11.37 20.9 0.74 25.55 0.74 25.55 11.37 25.55 11.37 20.9"/><polygon id="_Trazado_14" data-name=" Trazado 14" class="cls-4" points="11.37 14.38 14.77 12.9 14.77 9.61 11.36 11.11 11.36 14.39 11.37 14.38 11.37 14.38"/><polygon id="_Trazado_15" data-name=" Trazado 15" class="cls-5" points="11.37 14.38 11.37 14.38 11.36 14.39 11.36 14.39 11.37 14.38"/><polygon id="_Trazado_16" data-name=" Trazado 16" class="cls-4" points="11.37 17.64 11.37 20.9 14.78 19.4 14.78 16.15 11.37 17.64 11.37 17.64 11.37 17.64"/><polygon id="_Trazado_18" data-name=" Trazado 18" class="cls-4" points="19.91 25.55 30.52 25.55 30.52 11.6 19.9 2.93 19.91 25.55"/><polygon id="_Trazado_19" data-name=" Trazado 19" class="cls-5" points="19.9 25.55 19.91 25.55 19.9 2.93 19.9 25.55"/><polygon id="_Trazado_21" data-name=" Trazado 21" class="cls-6" points="19.91 25.55 19.9 25.55 11.37 25.55 0.74 25.55 0.74 30.51 30.52 30.51 30.52 25.55 19.91 25.55"/></g></g></g></svg>