<svg xmlns="http://www.w3.org/2000/svg" viewBox="0 0 120.43 27.01"><defs><style>.cls-1{fill:#060235;fill-rule:evenodd;}.cls-2{fill:#a0abff;}.cls-3{fill:#3753ff;}</style></defs><g id="Capa_2" data-name="Capa 2"><g id="Capa_2-2" data-name="Capa 2"><path class="cls-1" d="M54.19,3.94a2.3,2.3,0,1,1-2.31-2.26A2.28,2.28,0,0,1,54.19,3.94Zm-17,21.17V13.19a.13.13,0,0,0-.13-.14h-4a.13.13,0,0,1-.14-.13V9.16A.13.13,0,0,1,33.06,9h4a.13.13,0,0,0,.13-.14V6.57A4.67,4.67,0,0,1,38.46,3.1,4.73,4.73,0,0,1,42,1.84H46.1a.13.13,0,0,1,.13.13V5.48a.13.13,0,0,1-.13.13H42.93a1.09,1.09,0,0,0-.85.39.85.85,0,0,0-.17.51V8.89a.14.14,0,0,0,.14.14H54.23a.13.13,0,0,1,.14.13v16a.14.14,0,0,1-.14.14H49.57a.14.14,0,0,1-.14-.14V13.19a.13.13,0,0,0-.13-.14h-7a.14.14,0,0,0-.14.14V25.11a.13.13,0,0,1-.13.14H37.32A.15.15,0,0,1,37.18,25.11ZM85.29,9.05h3.89a.19.19,0,0,1,.2.19v3.6a.19.19,0,0,1-.2.19H85.29V25a.2.2,0,0,1-.2.19H80.5a.2.2,0,0,1-.19-.19V13H77.07a.18.18,0,0,1-.19-.19V9.24a.18.18,0,0,1,.19-.19h3.24V3.75a.2.2,0,0,1,.19-.19h4.59a.2.2,0,0,1,.2.19ZM59.64,25.1a.2.2,0,0,0,.19.19h4.55a.19.19,0,0,0,.19-.19v-9A3.1,3.1,0,0,1,65,14.48a3.33,3.33,0,0,1,1.14-1.16,3.37,3.37,0,0,1,3.26,0,3.14,3.14,0,0,1,1.13,1.16A2.92,2.92,0,0,1,71,16.05v9a.2.2,0,0,0,.19.19H75.7a.2.2,0,0,0,.2-.19V15.91a7.15,7.15,0,0,0-1-3.68A7,7,0,0,0,72.17,9.6a9,9,0,0,0-4.35-1,9.14,9.14,0,0,0-4.36,1,7.17,7.17,0,0,0-2.84,2.63,7.06,7.06,0,0,0-1,3.68Zm38.86.15a9,9,0,0,1-4.44-1.1,8.07,8.07,0,0,1-3.11-3,8.17,8.17,0,0,1-1.13-4.26A8.06,8.06,0,0,1,91,12.67a8.22,8.22,0,0,1,3.11-3,9.45,9.45,0,0,1,8.85,0,8.24,8.24,0,0,1,3.09,3,8.07,8.07,0,0,1,1.14,4.25A8.18,8.18,0,0,1,106,21.18a7.93,7.93,0,0,1-3.11,3A8.86,8.86,0,0,1,98.5,25.25Zm0-4.2a3.6,3.6,0,0,0,2-.56A3.65,3.65,0,0,0,101.81,19a4.68,4.68,0,0,0,.47-2.11,4.51,4.51,0,0,0-.47-2.07,3.88,3.88,0,0,0-1.31-1.5,3.87,3.87,0,0,0-4,0,3.53,3.53,0,0,0-1.33,1.5,4.5,4.5,0,0,0-.46,2.07A4.67,4.67,0,0,0,95.16,19a3.82,3.82,0,0,0,1.33,1.49A3.49,3.49,0,0,0,98.5,21.05Zm14.75,3.18a9.59,9.59,0,0,0,4.65,1.09v0h2.33a.2.2,0,0,0,.2-.2V21.26a.19.19,0,0,0-.2-.19h-2.12a4.3,4.3,0,0,1-2.2-.54,3.63,3.63,0,0,1-1.42-1.46A4.31,4.31,0,0,1,114,17a4.2,4.2,0,0,1,.51-2.09,3.8,3.8,0,0,1,1.42-1.45,4.2,4.2,0,0,1,2.2-.54h2.12a.2.2,0,0,0,.2-.19V8.83a.2.2,0,0,0-.2-.19H117.9a9.77,9.77,0,0,0-4.65,1.11,8.5,8.5,0,0,0-3.2,3A7.76,7.76,0,0,0,108.87,17a7.82,7.82,0,0,0,1.18,4.28A8.36,8.36,0,0,0,113.25,24.23Z"/><path class="cls-2" d="M16.76,12a4.29,4.29,0,0,0,.06-6L11.74.93a3.15,3.15,0,0,0-4.47,0,3.19,3.19,0,0,0,0,4.49l8,8.07Z"/><path class="cls-3" d="M21.25,10.44,16.76,6a4.3,4.3,0,0,1,0,6.08L7.25,21.58a3.19,3.19,0,0,0,0,4.49,3.14,3.14,0,0,0,4.48,0l9.5-9.55A4.32,4.32,0,0,0,21.25,10.44Z"/><path class="cls-3" d="M3.16,16.62A3.17,3.17,0,1,0,0,13.46,3.17,3.17,0,0,0,3.16,16.62Z"/></g></g></svg>