<svg xmlns="http://www.w3.org/2000/svg" viewBox="0 0 153 89.38"><defs><style>.cls-1{fill:#3c3c3b;}.cls-2{fill:#b5df00;}</style></defs><g id="Capa_2" data-name="Capa 2"><g id="Capa_2-2" data-name="Capa 2"><path class="cls-1" d="M64.46,55.22a8.51,8.51,0,0,1-2.06,6,7.54,7.54,0,0,1-5.68,2.2,8.52,8.52,0,0,1-4-1A7,7,0,0,1,50,59.63a9.47,9.47,0,0,1-.92-4.33,8.49,8.49,0,0,1,2-6,7.47,7.47,0,0,1,5.68-2.13,8.59,8.59,0,0,1,4,1A7,7,0,0,1,63.46,51,7.91,7.91,0,0,1,64.46,55.22Zm-10.94,0a6.7,6.7,0,0,0,.78,3.55,3.16,3.16,0,0,0,5,0,6.7,6.7,0,0,0,.78-3.55,6.75,6.75,0,0,0-.78-3.55,2.77,2.77,0,0,0-2.48-1.2A2.73,2.73,0,0,0,54.3,51.6,7.21,7.21,0,0,0,53.52,55.22Z"/><path class="cls-1" d="M74,60a8.56,8.56,0,0,0,2.7-.49v3.19a9.48,9.48,0,0,1-4,.71,4.93,4.93,0,0,1-3.76-1.28,5.7,5.7,0,0,1-1.21-3.9v-7.6H65.66V48.76L68,47.34,69.28,44h2.77v3.33h4.4v3.27h-4.4v7.6a1.58,1.58,0,0,0,.5,1.35A2.26,2.26,0,0,0,74,60Z"/><path class="cls-1" d="M88,47.06a9,9,0,0,1,1.49.14l-.36,4a6.39,6.39,0,0,0-1.27-.14,4.58,4.58,0,0,0-3.2,1.06,3.82,3.82,0,0,0-1.14,3v8H79.15V47.34h3.27L83.06,50h.21a5.82,5.82,0,0,1,2-2.13A5,5,0,0,1,88,47.06Z"/><path class="cls-1" d="M105.92,55.22a8.51,8.51,0,0,1-2.06,6,7.53,7.53,0,0,1-5.68,2.2,8.54,8.54,0,0,1-4.05-1,7,7,0,0,1-2.69-2.84,9.47,9.47,0,0,1-.93-4.33,8.49,8.49,0,0,1,2-6,7.5,7.5,0,0,1,5.68-2.13,8.66,8.66,0,0,1,4,1,7,7,0,0,1,2.7,2.84A7.91,7.91,0,0,1,105.92,55.22ZM95,55.22a6.7,6.7,0,0,0,.78,3.55,3.16,3.16,0,0,0,5,0,6.7,6.7,0,0,0,.78-3.55,6.75,6.75,0,0,0-.78-3.55,2.77,2.77,0,0,0-2.49-1.2,2.71,2.71,0,0,0-2.48,1.13A7.21,7.21,0,0,0,95,55.22Z"/><path class="cls-1" d="M119.77,58.42a4.3,4.3,0,0,1-1.71,3.69,8.38,8.38,0,0,1-5,1.28,17.11,17.11,0,0,1-2.91-.21,8.56,8.56,0,0,1-2.27-.71V58.92a13.34,13.34,0,0,0,2.7.92,9.71,9.71,0,0,0,2.62.36c1.57,0,2.35-.43,2.35-1.35a1.13,1.13,0,0,0-.29-.86,5.93,5.93,0,0,0-1.06-.71c-.5-.28-1.21-.56-2.06-.92a12.91,12.91,0,0,1-2.7-1.42,4.29,4.29,0,0,1-1.28-1.49,4.72,4.72,0,0,1-.35-2.06,3.85,3.85,0,0,1,1.63-3.27A7.82,7.82,0,0,1,114,47a12.52,12.52,0,0,1,5.53,1.28l-1.27,3.12c-.79-.35-1.57-.64-2.21-.85a7.55,7.55,0,0,0-2.13-.36c-1.27,0-1.91.36-1.91,1.07a1.22,1.22,0,0,0,.64,1,15.66,15.66,0,0,0,2.69,1.28,12.91,12.91,0,0,1,2.7,1.42,4.19,4.19,0,0,1,1.28,1.49A4.26,4.26,0,0,1,119.77,58.42Z"/><path class="cls-1" d="M18,82.7a5.51,5.51,0,0,1-4.4-2H13.4c.15,1.34.22,2,.22,2.27v6.39H9.29V66.66h3.47l.64,2.06h.22a4.93,4.93,0,0,1,4.47-2.35,5.21,5.21,0,0,1,4.4,2.13,10,10,0,0,1,1.56,6,11.88,11.88,0,0,1-.71,4.4,5.83,5.83,0,0,1-2.13,2.84A5.41,5.41,0,0,1,18,82.7ZM16.74,69.78a2.82,2.82,0,0,0-2.34,1A5.9,5.9,0,0,0,13.62,74v.5a6.49,6.49,0,0,0,.78,3.62,2.75,2.75,0,0,0,2.41,1.14c1.92,0,2.91-1.57,2.91-4.76A6.51,6.51,0,0,0,19,71.06,2.48,2.48,0,0,0,16.74,69.78Z"/><path class="cls-1" d="M37,82.42l-.86-2.13H36a6.28,6.28,0,0,1-2.27,1.92,7.26,7.26,0,0,1-3,.56,4.84,4.84,0,0,1-3.55-1.27,5.1,5.1,0,0,1-1.28-3.7,4,4,0,0,1,1.78-3.69A10.91,10.91,0,0,1,33,72.76l2.77-.07V72a2.16,2.16,0,0,0-2.49-2.41,10.94,10.94,0,0,0-4.47,1.13l-1.42-2.91a13.33,13.33,0,0,1,6-1.42,7.63,7.63,0,0,1,4.9,1.42A5.15,5.15,0,0,1,40,72V82.49H37ZM35.7,75.11l-1.63.07a5.14,5.14,0,0,0-2.77.71,2.11,2.11,0,0,0-.93,1.91c0,1.21.71,1.85,2.06,1.85a3.45,3.45,0,0,0,2.42-.85,2.89,2.89,0,0,0,.92-2.27V75.11Z"/><path class="cls-1" d="M57.43,66.66v2.2l-2.49.64a4.49,4.49,0,0,1,.71,2.34,4.75,4.75,0,0,1-1.77,4A7.9,7.9,0,0,1,49,77.24l-.78-.08-.64-.07a1.46,1.46,0,0,0-.64,1.14c0,.64.78.92,2.34.92H52a6,6,0,0,1,4,1.14,3.89,3.89,0,0,1,1.35,3.27,5,5,0,0,1-2.34,4.33,12.31,12.31,0,0,1-6.6,1.49,9,9,0,0,1-5-1.14A3.76,3.76,0,0,1,41.52,85a3.36,3.36,0,0,1,.92-2.42,5.21,5.21,0,0,1,2.63-1.35,2.78,2.78,0,0,1-1.13-.92,2.39,2.39,0,0,1-.5-1.35,2.08,2.08,0,0,1,.5-1.49,6.7,6.7,0,0,1,1.49-1.21,4.18,4.18,0,0,1-2-1.7,5,5,0,0,1-.71-2.77,4.88,4.88,0,0,1,1.7-4,7.42,7.42,0,0,1,4.83-1.42,14.24,14.24,0,0,1,1.56.14,4.77,4.77,0,0,1,1.14.22h5.47Zm-12.22,18a1.64,1.64,0,0,0,.86,1.42,4.44,4.44,0,0,0,2.41.5A8.21,8.21,0,0,0,52.1,86a2,2,0,0,0,1.35-1.78,1.23,1.23,0,0,0-.78-1.2,6.5,6.5,0,0,0-2.42-.36h-2.2a3.63,3.63,0,0,0-2,.57A1.68,1.68,0,0,0,45.21,84.69Zm1.57-12.85a3.59,3.59,0,0,0,.56,2.06,2.21,2.21,0,0,0,1.78.78,2.09,2.09,0,0,0,1.77-.78,3.52,3.52,0,0,0,.57-2.06c0-1.92-.78-2.84-2.34-2.84S46.78,69.92,46.78,71.84Z"/><path class="cls-1" d="M73.69,74.54a8.5,8.5,0,0,1-2.06,6A7.54,7.54,0,0,1,66,82.77a8.54,8.54,0,0,1-4.05-1,6.92,6.92,0,0,1-2.7-2.84,9.47,9.47,0,0,1-.92-4.33,8.49,8.49,0,0,1,2-6A7.49,7.49,0,0,1,66,66.44a8.48,8.48,0,0,1,4,1,6.92,6.92,0,0,1,2.7,2.84A8.55,8.55,0,0,1,73.69,74.54Zm-10.94,0a6.82,6.82,0,0,0,.78,3.55,3.16,3.16,0,0,0,5,0,6.72,6.72,0,0,0,.78-3.55A6.72,6.72,0,0,0,68.5,71a3.22,3.22,0,0,0-5-.07A6.35,6.35,0,0,0,62.75,74.54Z"/><path class="cls-1" d="M87.53,77.73a4.33,4.33,0,0,1-1.7,3.7,8.41,8.41,0,0,1-5,1.27,17.24,17.24,0,0,1-2.92-.21,8.21,8.21,0,0,1-2.27-.71V78.23a13.56,13.56,0,0,0,2.7.92,9.39,9.39,0,0,0,2.63.36c1.56,0,2.34-.43,2.34-1.35a1.13,1.13,0,0,0-.28-.85,5.14,5.14,0,0,0-1.07-.71,19,19,0,0,0-2.06-.93,12.7,12.7,0,0,1-2.7-1.42,4.17,4.17,0,0,1-1.27-1.49,4.58,4.58,0,0,1-.36-2.06,3.82,3.82,0,0,1,1.63-3.26,7.81,7.81,0,0,1,4.62-1.14,12.7,12.7,0,0,1,5.54,1.28L86,70.7a23.08,23.08,0,0,0-2.2-.85,7.53,7.53,0,0,0-2.13-.35c-1.28,0-1.92.35-1.92,1.06a1.26,1.26,0,0,0,.64,1,16.55,16.55,0,0,0,2.7,1.27,13.4,13.4,0,0,1,2.7,1.42,4,4,0,0,1,1.7,3.48Z"/><path class="cls-1" d="M89.67,80.5a2.23,2.23,0,0,1,.64-1.77,3,3,0,0,1,3.69,0,2.33,2.33,0,0,1,.64,1.77,2.22,2.22,0,0,1-2.41,2.42,2.56,2.56,0,0,1-1.85-.64A2.26,2.26,0,0,1,89.67,80.5Z"/><path class="cls-1" d="M104.23,82.77c-4.9,0-7.39-2.69-7.39-8.09,0-2.7.64-4.76,2-6.18a7.56,7.56,0,0,1,5.75-2.13,10.81,10.81,0,0,1,4.9,1.07l-1.28,3.33a12.24,12.24,0,0,0-1.92-.63,6.69,6.69,0,0,0-1.77-.29c-2.27,0-3.34,1.56-3.34,4.76s1.14,4.61,3.34,4.61a7.72,7.72,0,0,0,2.27-.35,7.35,7.35,0,0,0,2.13-1.07v3.7a7,7,0,0,1-2.13.92A6.38,6.38,0,0,1,104.23,82.77Z"/><path class="cls-1" d="M126.38,74.54a8.5,8.5,0,0,1-2.06,6,7.54,7.54,0,0,1-5.68,2.2,8.54,8.54,0,0,1-4-1,7,7,0,0,1-2.7-2.84,9.47,9.47,0,0,1-.92-4.33,8.49,8.49,0,0,1,2-6,7.5,7.5,0,0,1,5.68-2.13,8.55,8.55,0,0,1,4,1,6.9,6.9,0,0,1,2.69,2.84A8.94,8.94,0,0,1,126.38,74.54Zm-10.94,0a6.71,6.71,0,0,0,.79,3.55,2.75,2.75,0,0,0,2.48,1.21,2.78,2.78,0,0,0,2.49-1.21,8.47,8.47,0,0,0,0-7.1,2.78,2.78,0,0,0-2.49-1.21,2.71,2.71,0,0,0-2.48,1.14A6.66,6.66,0,0,0,115.44,74.54Z"/><path class="cls-1" d="M143.35,82.49H139V73.26a4.92,4.92,0,0,0-.57-2.56,2,2,0,0,0-1.78-.85,2.65,2.65,0,0,0-2.41,1.21,7.75,7.75,0,0,0-.78,4v7.46h-4.33V66.66h3.26l.57,2h.21a4.83,4.83,0,0,1,1.85-1.7,5.67,5.67,0,0,1,2.77-.64c2.34,0,4,.78,4.83,2.34H143a4.83,4.83,0,0,1,1.85-1.7,6,6,0,0,1,2.77-.64,5.51,5.51,0,0,1,4,1.35c.92.92,1.34,2.41,1.34,4.4v10.3h-4.33V73.12a4.93,4.93,0,0,0-.56-2.56,2,2,0,0,0-1.78-.85A2.53,2.53,0,0,0,144,70.85a6.63,6.63,0,0,0-.78,3.62v8Z"/><path class="cls-2" d="M36,19.94a11.16,11.16,0,0,1,3.55,8.16,4.81,4.81,0,0,1-.07,1L51,17.52,37.26,3.75a12.83,12.83,0,0,0-17.75-.36Z"/><path class="cls-2" d="M20.15,20.08h0a11.26,11.26,0,0,1,8-3.27,4.17,4.17,0,0,1,.93.07L17.52,5.31,3.75,19.08a12.83,12.83,0,0,0-.36,17.75Z"/><path class="cls-2" d="M20.22,36.2h0a11.27,11.27,0,0,1-3.41-8.1,4.72,4.72,0,0,1,.07-1L5.31,38.68,19.08,52.46a12.83,12.83,0,0,0,17.75.35Z"/><path class="cls-2" d="M52.88,19.37,36.12,36.2h0a11.39,11.39,0,0,1-7.95,3.26,4.72,4.72,0,0,1-1-.07L38.75,51,52.53,37.19A12.91,12.91,0,0,0,52.88,19.37Z"/></g></g></svg>