<svg xmlns="http://www.w3.org/2000/svg" viewBox="0 0 125.11 32.14"><defs><style>.cls-1{fill:#6d2077;}.cls-2{fill:#c80070;}</style></defs><g id="Capa_2" data-name="Capa 2"><g id="Capa_2-2" data-name="Capa 2"><path class="cls-1" d="M66.12,15.85v0h0v0a10.93,10.93,0,0,1-.92,5,4.18,4.18,0,0,1-4,2.15H61c-2.22,0-3.37-.87-4.07-2.15A10.92,10.92,0,0,1,56,15.9v-.11A9.45,9.45,0,0,1,57,11.07c.7-1.28,1.85-2.13,4.07-2.15h.08c2.22,0,3.37.87,4.08,2.15a9.56,9.56,0,0,1,.92,4.72Zm.63-8,0,0A8,8,0,0,0,61.36,6h-.12A7.64,7.64,0,0,0,56,7.74h0V6.57h0V.6a.56.56,0,0,0-.18-.42A.63.63,0,0,0,55.41,0H53.33a.64.64,0,0,0-.45.18A.56.56,0,0,0,52.7.6v6h0V19.24h0v5.93a.58.58,0,0,0,.18.43.68.68,0,0,0,.45.17h2.08a.66.66,0,0,0,.45-.17.58.58,0,0,0,.18-.43V24A6.84,6.84,0,0,0,61.24,26h.13a7.94,7.94,0,0,0,5.34-1.8c2.24-2.12,2.75-5.37,2.76-8.38S69,10,66.75,7.86"/><path class="cls-1" d="M85.26,16.25A9.52,9.52,0,0,1,84.34,21a4.19,4.19,0,0,1-4.08,2.16h-.08c-2.22,0-3.37-.87-4.08-2.15a9.59,9.59,0,0,1-.92-4.72v-.12a11.1,11.1,0,0,1,.92-5.08C76.81,9.77,78,8.92,80.18,8.9h.11c2.21,0,3.34.88,4,2.15a11.21,11.21,0,0,1,.92,5.05v0h0v.1Zm.62,7.92c2.2-2.11,2.71-5,2.72-8s-.52-6.27-2.76-8.39A7.89,7.89,0,0,0,80.51,6h-.13a6.79,6.79,0,0,0-5.2,2.08V6.86A.57.57,0,0,0,75,6.44a.67.67,0,0,0-.45-.18H72.47a.67.67,0,0,0-.45.18.57.57,0,0,0-.19.42V12.8h0V25.47h0v6a.59.59,0,0,0,.19.42.67.67,0,0,0,.45.18h2.07a.65.65,0,0,0,.45-.18.59.59,0,0,0,.19-.42v-6h0V24.29h0A7.65,7.65,0,0,0,80.38,26h.12a7.94,7.94,0,0,0,5.34-1.79l0,0"/><path class="cls-1" d="M115.69,27.58c-.19.5-.51,1.3-.73,1.78a5.77,5.77,0,0,1-1,1.43,4.13,4.13,0,0,1-1.75,1.06,5.84,5.84,0,0,1-1.09.22c-.53,0-1.3.07-1.71.07a.88.88,0,0,1-.75-1V29.77c0-.52.21-1,.48-1s.9,0,1.43-.1a1.68,1.68,0,0,0,.76-.32,2,2,0,0,0,.55-.68c.22-.48.54-1.28.72-1.78l.38-1.08A3.1,3.1,0,0,0,113,23L107.2,7.15a.63.63,0,0,1,.63-.9h2a1.44,1.44,0,0,1,1.27.91l3.81,11.24c.17.5.44.5.61,0l3.71-11.24a1.42,1.42,0,0,1,1.26-.91h2.07a.63.63,0,0,1,.63.9Z"/><path class="cls-1" d="M93.55,20V20a2.4,2.4,0,0,1,.9-2.07,5.2,5.2,0,0,1,3.14-.76h5.13v1.59c0,1.57-.35,2.43-.81,2.84-1.11,1-2.48,1.17-4.16,1.18h0a5.68,5.68,0,0,1-3.27-.72,2.27,2.27,0,0,1-.88-2m12.62-7.32h0a6,6,0,0,0-2-4.82c-1.39-1.15-3.39-1.68-6-1.68H98c-2.71,0-4.86.58-6.49,2.32h0l-.09.11a4.82,4.82,0,0,0-.36.43h0l-.16.2a.58.58,0,0,0-.13.44.62.62,0,0,0,.22.42l.1.09.12.12.36.3,1,.84a.69.69,0,0,0,.45.16.58.58,0,0,0,.41-.2l.62-.74h0a3.6,3.6,0,0,1,1.28-.94,7.13,7.13,0,0,1,2.82-.45h.06a5.36,5.36,0,0,1,3.56.93,3.34,3.34,0,0,1,1,2.69v1.29H97.38a8.38,8.38,0,0,0-5.26,1.51,5.25,5.25,0,0,0-2,4.29v.07a5.63,5.63,0,0,0,1.58,4c1.36,1.35,3.19,1.83,5.94,1.83h1.43c2.52,0,4.33-.62,5.49-1.87a7.6,7.6,0,0,0,1.63-5.33V12.72Z"/><path class="cls-1" d="M31.24,6.29a1.41,1.41,0,0,0-1.28,1L26.33,20.06c-.15.53-.41.54-.59,0L21.52,7.24a1.48,1.48,0,0,0-1.31-1h-.76a1.48,1.48,0,0,0-1.31,1L14,20.07c-.18.52-.44.52-.59,0L9.7,7.25a1.42,1.42,0,0,0-1.28-1H6.87a.69.69,0,0,0-.7,1l5.61,17.68a1.45,1.45,0,0,0,1.3.95h1.06A1.32,1.32,0,0,0,15.32,25l4.19-12.5c.18-.52.46-.52.64,0l4.19,12.4a1.49,1.49,0,0,0,1.32.95h1a1.34,1.34,0,0,0,1.2-.88L33.48,7.24a.69.69,0,0,0-.7-1Z"/><path class="cls-1" d="M50.32,15.46c0-5.81-3.08-9.42-8-9.42s-8,3.72-8,10c0,6.42,3,10,8.54,10a9,9,0,0,0,7.11-3l.25-.25-2.37-2.08-.21.22a5.88,5.88,0,0,1-4.7,2c-3.27,0-5.11-2.07-5.21-5.84H50.32ZM37.65,14.33a7.09,7.09,0,0,1,.53-2.68,4.5,4.5,0,0,1,8.19,0,7.09,7.09,0,0,1,.53,2.68Z"/><path class="cls-2" d="M2,10.34a2,2,0,1,0-2-2,2,2,0,0,0,2,2"/><path class="cls-2" d="M123.11,25.86a2,2,0,1,0-2-2,2,2,0,0,0,2,2"/></g></g></svg>